<svg xmlns="http://www.w3.org/2000/svg" xml:space="preserve" width="1265.173" height="378.427"><path d="M4018.31 948.629c0-86.469-33.07-119.527-114.45-119.527h-287.39v295.008h287.39c81.38 0 114.45-40.69 114.45-119.53zM3903.86 1317.4h-600.2v-180.57l106.82-15.26V399.289h205.99V635.82h287.39c236.52 0 317.91 119.532 317.91 305.18v71.21c0 175.48-76.3 305.19-317.91 305.19zm4432.86 0h76.29V399.289h-206v651.091l-424.72-651.091h-236.52V1317.4h206V689.09l310.27 480.8c78.85 122.08 147.51 147.51 274.68 147.51zM2522.89 2438.96h562.05v-114.44c0-91.56-7.63-167.85-27.98-236.52h-175.48v157.68h-358.59c-106.82 0-132.26-27.98-132.26-144.97v-241.6c0-116.99 25.44-144.97 132.26-144.97h562.05v-193.28h-562.05c-261.95 0-338.25 76.29-338.25 338.25v241.6c0 264.5 76.3 338.25 338.25 338.25zm5684.12 0h206v-918.1h-206v368.77h-455.24v-368.77h-206v918.1h206v-356.05h455.24zM2777.21 592.57h-356.06v178.032h356.06c68.67 0 94.1-33.063 94.1-86.461 0-53.411-25.43-91.571-94.1-91.571zm53.4 450.16c0-55.96-27.96-86.468-99.18-86.468h-310.28v165.308h310.28c71.22 0 99.18-25.43 99.18-78.84zm117.61-158.269c48.28 29.469 88.4 92.098 88.4 188.789 0 124.62-71.21 244.15-282.3 244.15h-539.16V399.289h559.51c203.45 0 302.64 104.27 302.64 274.672 0 114.578-65.8 182.109-129.09 210.5zM6803.14 1317.4h567.14v-114.45c0-91.56-7.62-167.85-27.98-236.52h-175.48v157.68h-363.68c-106.81 0-132.24-27.97-132.24-144.962V737.539c0-116.988 25.43-144.969 132.24-144.969h567.14V399.289h-567.14c-261.95 0-338.25 76.301-338.25 338.25v241.609c0 264.502 76.3 338.252 338.25 338.252zM5066.11 737.539c0-116.988-25.43-144.969-132.24-144.969h-244.15c-106.82 0-132.25 27.981-132.25 144.969v241.609c0 116.992 25.43 144.962 132.25 144.962h244.15c106.81 0 132.24-27.97 132.24-144.962zM4933.87 1317.4h-244.15c-261.96 0-338.25-73.75-338.25-338.252V737.539c0-261.949 76.29-338.25 338.25-338.25h244.15c264.5 0 338.25 76.301 338.25 338.25v241.609c0 264.502-73.75 338.252-338.25 338.252zm-1367.79 928.28h363.22v-503.56h-440.64c28.16 49.2 40.04 117.79 48.98 206zm569.21 193.28h-750.25l-45.77-465.41c-22.89-221.26-55.96-256.86-117-256.86h-12.71v-282.3h195.83l7.63 116.99h605.29l7.63-116.99h195.83v284.84h-86.48zM5755.33 1317.4h564.6v-114.45c0-91.56-7.63-167.85-27.98-236.52h-175.48v157.68h-361.14c-106.82 0-132.25-27.97-132.25-144.962V737.539c0-116.988 25.43-144.969 132.25-144.969h564.6V399.289h-564.6c-261.95 0-338.25 76.301-338.25 338.25v241.609c0 264.502 76.3 338.252 338.25 338.252zm3527.46 541.71c0-116.99-25.43-144.97-132.24-144.97H8924.2c-106.82 0-132.25 27.98-132.25 144.97v241.6c0 116.99 25.43 144.97 132.25 144.97h226.35c106.81 0 132.24-27.98 132.24-144.97zm-132.24 579.85H8924.2c-261.96 0-338.25-73.75-338.25-338.25v-241.6c0-261.96 101.72-338.25 363.68-338.25h175.49c264.49 0 363.68 76.29 363.68 338.25v241.6c0 264.5-73.75 338.25-338.25 338.25zm-4783.82-579.85v241.6c0 264.5 73.75 338.25 338.25 338.25h539.16v-193.28H4694.8c-106.81 0-122.07-17.8-122.07-134.79v-30.52h521.36v-190.74h-521.36v-40.7c0-116.99 15.26-134.79 122.07-134.79h556.98v-193.28h-546.8c-264.5 0-338.25 76.29-338.25 338.25zm2456.76 386.57h322.99v-226.35h-455.24v81.38c0 104.27 12.72 144.97 132.25 144.97zm-132.25-417.09h455.24v-307.73h206v918.1h-528.99c-259.41 0-338.25-71.21-338.25-338.25v-579.85h206zM1213.12 1317.4h206V399.289H760.43c-264.504 0-363.684 99.191-363.684 363.68V1317.4h205.996V757.891c0-117 45.781-165.321 152.598-165.321h457.78zM198.367 2639.88H1617.5V198.371H198.367ZM0 .012h1815.87V2838.25H0ZM5376.4 1520.86v195.83c83.92 0 104.26 50.86 122.07 221.26l55.95 501.01h737.53v-918.1h-205.99v724.82h-355.23l-36.43-350.97c-30.52-302.64-111.91-384.03-317.9-373.85zm4020.84-203.46h76.29V399.289h-205.99v651.091l-424.73-651.091H8606.3V1317.4h205.99V689.09l310.28 480.8c78.84 122.08 147.51 147.51 274.67 147.51zM1111.4 2037.13H602.742v208.55H1111.4c76.28 0 111.89-40.7 111.89-101.73 0-61.04-30.52-106.82-111.89-106.82zm317.9 129.71c0 152.59-73.75 272.12-289.94 272.12H396.746v-918.1h205.996v322.99h475.588c106.82 0 134.79-30.52 134.79-137.34v-185.65h206v218.72c0 109.09-38.7 173.09-124.66 194.86 89.43 30.23 134.84 116.7 134.84 232.4" style="fill:#050606;fill-opacity:1;fill-rule:nonzero;stroke:none" transform="matrix(.13333 0 0 -.13333 0 378.427)"/></svg>